# xmcd CD database file
#
# Track frame offsets:
#	150
#	28727
#	56924
#	85501
#	113838
#	144563
#	174780
#	208712
#	238634
#
# Disc length: 3579 seconds
#
# Revision: 0
# Processed by: cddbd v1.5.1PL0 Copyright (c) Steve Scherf et al.
# Submitted via: CDex 1.51
#
DISCID=730df909
DTITLE=Gentle Persuasion - The Sounds of Nature Sampler
DYEAR=1990
DGENRE=New Age
TTITLE0=Electrifying Thunderstorms
TTITLE1=Carmel by the Sea
TTITLE2=Cry of the Loon
TTITLE3=Songs of the Humpback Whale
TTITLE4=Sound of a Babbling Brook
TTITLE5=The Romantic Sea of Tranquility
TTITLE6=A Tropical Rain Forest
TTITLE7=The Musical Sea of Tranquility
TTITLE8=Peaceful Ocean Surf
EXTD=YEAR: 1990
EXTT0=
EXTT1=
EXTT2=
EXTT3=
EXTT4=
EXTT5=
EXTT6=
EXTT7=
EXTT8=
PLAYORDER=
